<svg width="105" height="105" viewBox="0 0 105 105" fill="none" xmlns="http://www.w3.org/2000/svg">
<g opacity="0.3">
<path d="M77.9188 24.0187V27.2563L62.4313 18.2875C56.5688 14.9187 48.3875 14.9187 42.5688 18.2875L27.0813 27.3V24.0187C27.0813 14.175 32.4625 8.75 42.3063 8.75H62.6938C72.5376 8.75 77.9188 14.175 77.9188 24.0187Z" fill="white"/>
<path d="M78.05 34.8688L77.4375 34.5626L71.4875 31.1501L59.15 24.0188C55.3875 21.8313 49.6125 21.8313 45.85 24.0188L33.5125 31.1063L27.5625 34.6063L26.775 35.0001C19.1187 40.1626 18.5938 41.1251 18.5938 49.3938V69.1688C18.5938 77.4376 19.1187 78.4001 26.95 83.6938L45.85 94.5876C47.7312 95.7251 50.0938 96.2063 52.5 96.2063C54.8625 96.2063 57.2688 95.6813 59.15 94.5876L78.225 83.5626C85.925 78.4001 86.4062 77.4813 86.4062 69.1688V49.3938C86.4062 41.1251 85.8812 40.1626 78.05 34.8688ZM64.7062 59.0626L62.0375 62.3438C61.6 62.8251 61.2938 63.7438 61.3375 64.4001L61.6 68.6001C61.775 71.1813 59.9375 72.4938 57.5312 71.5751L53.6375 70.0001C53.025 69.7813 52.0187 69.7813 51.4062 70.0001L47.5125 71.5313C45.1062 72.4938 43.2688 71.1376 43.4438 68.5563L43.7062 64.3563C43.75 63.7001 43.4438 62.7813 43.0063 62.3001L40.2938 59.0626C38.6313 57.0938 39.375 54.9063 41.8687 54.2501L45.9375 53.2001C46.5938 53.0251 47.3375 52.4126 47.6875 51.8876L49.9625 48.3876C51.3625 46.2001 53.5938 46.2001 55.0375 48.3876L57.3125 51.8876C57.6625 52.4563 58.45 53.0251 59.0625 53.2001L63.1313 54.2501C65.625 54.9063 66.3688 57.0938 64.7062 59.0626Z" fill="white"/>
</g>
</svg>
